<?xml version="1.0" encoding="UTF-8" standalone="no"?><svg xmlns="http://www.w3.org/2000/svg" width="118" height="28" fill="none" viewBox="0 0 118 28">
  <path fill="#2D3E50" d="M49.047 13.87c.187-.713.375-1.35.562-1.988 1.05-3.786 2.1-7.61 3.186-11.396.075-.3.075-.3.375-.3h6.26c.113 0 .15.038.15.15v27.179c0 .375.038.337-.337.337h-4.836c-.15 0-.224-.037-.187-.187V10.87a.34.34 0 0 0-.112.263c-1.35 5.473-2.737 10.909-4.087 16.382 0 .037-.037.112-.037.15 0 .187-.113.225-.263.187H48.41c-.15 0-.263-.075-.263-.225-.225-.974-.487-1.912-.712-2.886-1.125-4.574-2.287-9.11-3.412-13.683-.037-.075-.037-.15-.112-.225V27.44c0 .45.075.375-.412.375h-4.874c-.075 0-.112-.038-.112-.15V.486c0-.412-.075-.375.375-.375h6.148c.15 0 .187.038.224.188.113.487.263.974.413 1.462 1.087 3.936 2.174 7.835 3.261 11.77l.113.338ZM36 13.982v13.533c0 .3.038.3-.262.3H19.656c-.412 0-.375.037-.375-.375V.524c0-.375-.075-.375.375-.375h16.045c.412 0 .337-.037.337.337-.037 4.499-.037 8.997-.037 13.496Zm-5.81.037V5.547c0-.112-.037-.15-.15-.15h-4.573c-.488 0-.413-.037-.413.375v16.57c0 .225 0 .225.225.225h4.686c.15 0 .225-.038.225-.188v-8.36ZM.5 27.777c.038-.112.038-.225.038-.337V4.085c.787-.75 1.612-1.5 2.399-2.25L4.587.3a.564.564 0 0 1 .412-.15h11.32c.263 0 .263 0 .263.3v16.944c0 .375.038.338-.337.338h-2.437c-.112 0-.225 0-.337.037 1.2 3.337 2.437 6.673 3.636 10.01-.112.074-.187.037-.3.037h-5.21c-.3 0-.3 0-.375-.263-1.088-3.149-2.137-6.26-3.224-9.409-.15-.412-.038-.337-.525-.375h-.975c-.112 0-.187.038-.15.15v9.672c0 .225 0 .225-.225.225H.725c-.112 0-.187 0-.225-.038ZM10.772 9.033V5.51c0-.075-.038-.113-.15-.113H6.423c-.075 0-.112.038-.112.15v6.785c0 .263-.038.263.262.263h3.936c.263 0 .263 0 .263-.263V9.033Zm98.854 8.735c1.2 3.336 2.437 6.673 3.636 10.01a.705.705 0 0 1-.3.074h-5.173c-.3 0-.3 0-.412-.3-1.087-3.111-2.137-6.26-3.224-9.372-.15-.412-.038-.375-.488-.375h-.937c-.225 0-.225 0-.225.226v9.559c0 .225 0 .225-.225.225h-5.323c-.262 0-.262 0-.262-.263V4.422c0-.224.075-.45.262-.6 1.275-1.161 2.512-2.324 3.749-3.486.15-.112.3-.187.487-.187h11.359c.187-.038.225.075.187.225v16.944c0 .45.038.375-.412.375h-2.362c-.112.038-.225 0-.337.075Zm-7.16-8.772v3.374c0 .225 0 .225.225.225h4.048c.225 0 .225 0 .225-.225V5.66c0-.263 0-.263-.262-.263h-3.936c-.263 0-.263 0-.263.263-.037 1.124-.037 2.249-.037 3.336ZM62.392 15.93V4.386a.74.74 0 0 1 .225-.525A341.186 341.186 0 0 0 66.365.373c.15-.112.3-.187.488-.187h11.359c.224 0 .224 0 .224.262v20.019c0 .45.038.412-.374.412H68.54c-.413 0-.375-.037-.375.375v6.298c0 .375.037.337-.338.337H62.58c-.15 0-.225-.037-.187-.187V15.93Zm10.271-5.435v-4.91c0-.15-.075-.188-.187-.188h-3.974c-.3 0-.3 0-.3.3v9.56c0 .299 0 .261.3.261h4.011c.113 0 .188-.037.15-.15v-4.873Zm8.285 3.487V.562c0-.413-.075-.376.413-.376h12.633c.375 0 .375 0 .375.375v4.724c0 .112-.037.15-.15.15h-7.198c-.374 0-.337-.038-.337.337v4.761c0 .225 0 .225.225.225h6.898c.112 0 .187.037.15.15v4.873c0 .075-.038.113-.15.113h-6.86c-.263 0-.263 0-.263.262v6.073c0 .3-.037.3.3.3h7.123c.412 0 .374-.075.374.375v4.723c0 .15-.075.188-.187.188H81.098c-.187.037-.225-.075-.187-.225v-.225c.037-4.461.037-8.922.037-13.383ZM115.25.186c-1.013 0-1.8.787-1.8 1.8 0 1.012.787 1.799 1.8 1.799a1.776 1.776 0 0 0 1.799-1.8c0-.974-.787-1.799-1.762-1.799h-.037Zm0 3.261a1.44 1.44 0 0 1-1.462-1.462c0-.787.637-1.462 1.424-1.462h.038a1.44 1.44 0 0 1 1.462 1.462 1.44 1.44 0 0 1-1.462 1.462Z"/>
  <path fill="#2D3E50" d="m115.924 2.398-.112-.225c-.038-.075-.113-.112-.187-.15h-.038c.038 0 .075-.037.112-.037.113-.075.188-.15.225-.263a.409.409 0 0 0 0-.3.284.284 0 0 0-.075-.187.784.784 0 0 0-.224-.15c-.113-.038-.263-.038-.375-.038h-.788v1.875h.45V2.21h.15c.075 0 .188.038.225.113.038.037.3.6.3.6h.525a1.479 1.479 0 0 0-.188-.525Zm-.487-.712a.291.291 0 0 1-.15.15h-.3v-.45h.338c.075.037.112.075.112.15v.15Z"/>
</svg>
