<?xml version="1.0" encoding="UTF-8" standalone="no"?><svg xmlns="http://www.w3.org/2000/svg" width="363" height="45" fill="none" viewBox="0 0 363 45">
  <path fill="#0C6" d="M20.443 6.54c14.457 0 14.158 5.605 14.158 13.93 0 7.688-6.393 15.555-14.158 15.555S6.285 28.005 6.285 20.393c0-8.261-.299-13.853 14.158-13.853Zm0-6.285C14.514.255 7.174.96 3.031 6.438 0 10.467 0 15.265 0 19.91v.483a22.998 22.998 0 0 0 5.675 14.813c3.92 4.53 9.303 7.13 14.768 7.13S31.246 39.794 35.16 35.3a22.832 22.832 0 0 0 5.72-14.807v-.54c0-4.664 0-9.487-3.025-13.522C33.725.96 26.378.255 20.443.255Z"/>
  <path fill="#0C6" d="m17.794 29.2-6.228-6.227a2.79 2.79 0 0 1 0-3.94l1.78-1.798 4.448 4.448 9.163-9.208 3.768 3.775L17.794 29.2Z"/>
  <path fill="#2D3E50" d="m67.018 34.17-5.63-10.212h-1.576V34.17h-6.59V7.124h11.057a12.2 12.2 0 0 1 5.452 1.119 7.689 7.689 0 0 1 3.368 3.063 8.554 8.554 0 0 1 1.119 4.333 8.07 8.07 0 0 1-1.519 4.817 8.261 8.261 0 0 1-4.493 3.006l6.24 10.708h-7.428Zm-7.206-14.851h4.08a3.75 3.75 0 0 0 2.72-.89 3.328 3.328 0 0 0 .902-2.504 3.228 3.228 0 0 0-.903-2.42 3.75 3.75 0 0 0-2.72-.89h-4.08v6.704ZM97.518 25H82.61a4.486 4.486 0 0 0 1.27 3.063 3.934 3.934 0 0 0 2.79 1.061 3.463 3.463 0 0 0 3.426-2.084h6.99a9.628 9.628 0 0 1-1.945 3.813 9.786 9.786 0 0 1-3.526 2.662c-1.493.658-3.11.985-4.741.96a11.572 11.572 0 0 1-5.624-1.347 9.602 9.602 0 0 1-3.85-3.851 11.941 11.941 0 0 1-1.386-5.86 12.073 12.073 0 0 1 1.366-5.852 9.475 9.475 0 0 1 3.813-3.85 12.493 12.493 0 0 1 11.21-.039 9.335 9.335 0 0 1 3.812 3.737 11.305 11.305 0 0 1 1.373 5.662 17 17 0 0 1-.07 1.925Zm-6.647-3.66a3.387 3.387 0 0 0-1.156-2.695 4.257 4.257 0 0 0-2.892-1.004 4.162 4.162 0 0 0-2.79.966 4.302 4.302 0 0 0-1.41 2.733h8.248Zm21.422-8.052a6.824 6.824 0 0 1 2.637 2.428v-3.044h6.59v21.46a12.07 12.07 0 0 1-1.176 5.37 8.928 8.928 0 0 1-3.584 3.812 11.57 11.57 0 0 1-5.992 1.424c-3.182 0-5.762-.752-7.74-2.256a8.498 8.498 0 0 1-3.387-6.107h6.482a3.12 3.12 0 0 0 1.461 1.944 5.34 5.34 0 0 0 2.853.712 4.45 4.45 0 0 0 3.311-1.144c.814-.788 1.214-2.04 1.214-3.755v-3.044a7.316 7.316 0 0 1-2.656 2.446 8.028 8.028 0 0 1-3.966.94 8.826 8.826 0 0 1-4.816-1.365 9.46 9.46 0 0 1-3.413-3.89 13.017 13.017 0 0 1-1.27-5.84 12.864 12.864 0 0 1 1.27-5.814 9.355 9.355 0 0 1 3.413-3.85 8.893 8.893 0 0 1 4.816-1.348 8.261 8.261 0 0 1 3.953.921Zm1.271 6.24a4.63 4.63 0 0 0-5.144-1.046 4.629 4.629 0 0 0-1.522 1.047 5.343 5.343 0 0 0-1.366 3.87 5.477 5.477 0 0 0 1.366 3.914 4.593 4.593 0 0 0 6.666 0 5.404 5.404 0 0 0 1.366-3.895 5.407 5.407 0 0 0-1.366-3.89Zm12.258-10.11a3.311 3.311 0 0 1-1.093-2.542 3.333 3.333 0 0 1 1.093-2.542 4.008 4.008 0 0 1 2.834-1.023 3.935 3.935 0 0 1 2.79 1.023 3.344 3.344 0 0 1 1.099 2.542 3.282 3.282 0 0 1-1.099 2.542 3.935 3.935 0 0 1-2.803 1.004 4.008 4.008 0 0 1-2.821-1.004Zm6.106 3.254V34.17h-6.596V12.672h6.596Zm7.537 20.843a8.538 8.538 0 0 1-3.476-2.644 6.929 6.929 0 0 1-1.43-3.755h6.514a2.472 2.472 0 0 0 1.042 1.81 3.637 3.637 0 0 0 2.268.693c.67.04 1.335-.126 1.907-.476a1.478 1.478 0 0 0 .673-1.271 1.446 1.446 0 0 0-.959-1.373 19.536 19.536 0 0 0-3.12-.978 29.013 29.013 0 0 1-3.839-1.119 6.67 6.67 0 0 1-2.662-1.906 5.151 5.151 0 0 1-1.119-3.489 5.92 5.92 0 0 1 1.024-3.368 6.86 6.86 0 0 1 3.005-2.408 11.513 11.513 0 0 1 4.722-.884c2.694 0 4.812.668 6.355 2.002a7.791 7.791 0 0 1 2.675 5.313h-6.088a2.6 2.6 0 0 0-.979-1.767 3.397 3.397 0 0 0-2.179-.635 3.043 3.043 0 0 0-1.773.438 1.43 1.43 0 0 0-.636 1.214 1.482 1.482 0 0 0 .985 1.385c.998.418 2.038.73 3.101.928 1.32.325 2.619.73 3.889 1.214a6.726 6.726 0 0 1 2.638 1.906 5.445 5.445 0 0 1 1.175 3.565 5.638 5.638 0 0 1-1.055 3.368 7.031 7.031 0 0 1-3.043 2.332 11.635 11.635 0 0 1-4.608.845 12.37 12.37 0 0 1-5.007-.94Zm28.775-4.931v5.586h-3.349c-2.39 0-4.252-.585-5.586-1.754-1.335-1.17-2.002-3.076-2.002-5.72v-8.553h-2.618v-5.471h2.618V7.436h6.584v5.236h4.314v5.471h-4.314v8.63a1.81 1.81 0 0 0 .464 1.385 2.24 2.24 0 0 0 1.544.426h2.345Zm12.176-15.124a7.518 7.518 0 0 1 3.851-1.017v6.99h-1.811c-1.648 0-2.881.354-3.699 1.062-.817.707-1.228 1.946-1.233 3.717v9.977h-6.583V12.672h6.583v3.584a8.726 8.726 0 0 1 2.892-2.796Zm10.147 19.668a9.8 9.8 0 0 1-3.965-3.851 11.502 11.502 0 0 1-1.449-5.86 11.396 11.396 0 0 1 1.468-5.833 9.903 9.903 0 0 1 4.003-3.87 12.71 12.71 0 0 1 11.401 0 9.963 9.963 0 0 1 4.01 3.87 11.445 11.445 0 0 1 1.461 5.834 11.342 11.342 0 0 1-1.481 5.84 10.004 10.004 0 0 1-4.047 3.87 12.138 12.138 0 0 1-5.72 1.347 11.91 11.91 0 0 1-5.681-1.347Zm8.897-5.72a5.51 5.51 0 0 0 1.347-3.99 5.597 5.597 0 0 0-1.271-3.965 4.38 4.38 0 0 0-6.355 0c-.847.915-1.271 2.243-1.271 3.984a5.723 5.723 0 0 0 1.271 3.972 4.068 4.068 0 0 0 3.14 1.385 4.297 4.297 0 0 0 3.139-1.404v.019Zm37.309-7.282a7.922 7.922 0 0 1-3.311 3.14 11.703 11.703 0 0 1-5.548 1.194h-4.086v9.71h-6.583V7.124h10.669a12.136 12.136 0 0 1 5.465 1.119 7.656 7.656 0 0 1 3.356 3.082 8.977 8.977 0 0 1 1.118 4.505 8.714 8.714 0 0 1-1.08 4.296Zm-6.552-1.792a3.301 3.301 0 0 0 .928-2.504 3.317 3.317 0 0 0-.928-2.504 3.921 3.921 0 0 0-2.809-.883h-3.584v6.78h3.584a3.92 3.92 0 0 0 2.809-.889Zm14.198 14.794a9.8 9.8 0 0 1-3.965-3.851 11.502 11.502 0 0 1-1.449-5.86 11.396 11.396 0 0 1 1.468-5.833 9.899 9.899 0 0 1 4.004-3.87 12.706 12.706 0 0 1 11.4 0 9.958 9.958 0 0 1 4.035 3.87 11.446 11.446 0 0 1 1.462 5.834 11.352 11.352 0 0 1-1.481 5.84 10.012 10.012 0 0 1-4.048 3.87 12.131 12.131 0 0 1-5.719 1.347 11.91 11.91 0 0 1-5.707-1.347Zm8.897-5.72a5.503 5.503 0 0 0 1.328-3.971 5.597 5.597 0 0 0-1.271-3.965 4.38 4.38 0 0 0-6.355 0c-.847.915-1.271 2.243-1.271 3.984a5.723 5.723 0 0 0 1.271 3.972 4.067 4.067 0 0 0 3.14 1.385 4.297 4.297 0 0 0 3.158-1.423v.019Zm19.818-14.12a8.158 8.158 0 0 1 3.965-.921 8.898 8.898 0 0 1 4.817 1.347 9.353 9.353 0 0 1 3.412 3.85 12.879 12.879 0 0 1 1.271 5.815 13.01 13.01 0 0 1-1.271 5.84 9.466 9.466 0 0 1-3.412 3.89 8.826 8.826 0 0 1-4.817 1.366 8.182 8.182 0 0 1-3.946-.922 7.258 7.258 0 0 1-2.676-2.39v13.25h-6.589V12.672h6.589v3.044a7.17 7.17 0 0 1 2.657-2.428Zm5.376 6.221a4.551 4.551 0 0 0-3.349-1.404 4.451 4.451 0 0 0-3.33 1.423 5.371 5.371 0 0 0-1.366 3.89 5.387 5.387 0 0 0 1.366 3.895 4.45 4.45 0 0 0 3.33 1.423 4.498 4.498 0 0 0 3.355-1.442 5.431 5.431 0 0 0 1.385-3.915 5.326 5.326 0 0 0-1.391-3.87Zm31.793-6.837V34.17h-6.583v-2.93a7.27 7.27 0 0 1-2.72 2.294 8.263 8.263 0 0 1-3.813.864 8.522 8.522 0 0 1-4.334-1.099 7.387 7.387 0 0 1-2.923-3.177 10.812 10.812 0 0 1-1.042-4.893V12.672h6.552v11.673a4.71 4.71 0 0 0 1.112 3.35 4.447 4.447 0 0 0 6.049 0 4.713 4.713 0 0 0 1.119-3.35V12.672h6.583Zm10.362-7.01V34.17h-6.59V5.662h6.59Zm3.758 11.903a9.296 9.296 0 0 1 3.406-3.851 8.898 8.898 0 0 1 4.817-1.347 8.264 8.264 0 0 1 3.991.921 6.877 6.877 0 0 1 2.637 2.428v-3.044h6.583V34.17h-6.583v-3.044a7.178 7.178 0 0 1-2.675 2.427 8.298 8.298 0 0 1-3.991.922 8.777 8.777 0 0 1-4.779-1.367 9.408 9.408 0 0 1-3.406-3.889 13.016 13.016 0 0 1-1.271-5.84 12.879 12.879 0 0 1 1.271-5.814Zm13.485 1.963a4.63 4.63 0 0 0-5.144-1.046 4.63 4.63 0 0 0-1.522 1.046 5.303 5.303 0 0 0-1.367 3.87 5.448 5.448 0 0 0 1.367 3.915 4.44 4.44 0 0 0 3.329 1.442 4.45 4.45 0 0 0 3.337-1.423 5.413 5.413 0 0 0 1.366-3.896 5.418 5.418 0 0 0-1.366-3.908Zm21.239-6.068A7.523 7.523 0 0 1 363 12.443v6.99h-1.811c-1.648 0-2.881.354-3.698 1.062-.827.705-1.233 1.944-1.233 3.717v9.977h-6.59V12.672h6.59v3.584a8.77 8.77 0 0 1 2.885-2.796Z"/>
</svg>
