<svg xmlns="http://www.w3.org/2000/svg" viewBox="0 0 79.44 61.03"><defs><style>.cls-1{fill:#fff;}</style></defs><title>Foletto_logo_4</title><g id="Camada_2" data-name="Camada 2"><g id="Camada_1-2" data-name="Camada 1"><path class="cls-1" d="M10.87.32.32,10.88a1.08,1.08,0,0,0,.76,1.84H13.86a1.09,1.09,0,0,1,1.08,1.08v8.89a1.08,1.08,0,0,0,1.84.76L27.25,13a1.07,1.07,0,0,1,.76-.32H67.72a1.07,1.07,0,0,0,.76-.31L79.12,1.85A1.08,1.08,0,0,0,78.36,0H11.64A1.07,1.07,0,0,0,10.87.32Z"/><path class="cls-1" d="M27.29,23.41,15.21,35.51a1.07,1.07,0,0,0-.32.76V59.94A1.09,1.09,0,0,0,16,61h19A1.08,1.08,0,0,0,36,59.94V38a2.16,2.16,0,0,1,2.16-2.16h12.2a1.1,1.1,0,0,0,.76-.31L61.78,25A1.08,1.08,0,0,0,61,23.1H28.06A1.09,1.09,0,0,0,27.29,23.41Z"/></g></g></svg>