<svg xmlns="http://www.w3.org/2000/svg" viewBox="0 0 460.98 61.03"><defs><style>.cls-1{fill:#fff;}</style></defs><title>Foletto_logo_1</title><g id="Camada_2" data-name="Camada 2"><g id="Camada_1-2" data-name="Camada 1"><path class="cls-1" d="M333.25,0h-59a1.05,1.05,0,0,0-.76.32L263,10.88a1.08,1.08,0,0,0,.77,1.84h22a1.09,1.09,0,0,1,1.09,1.08V59.94A1.08,1.08,0,0,0,287.93,61h19A1.08,1.08,0,0,0,308,59.94V12.72h14.64a1.07,1.07,0,0,0,.76-.31L334,1.85A1.08,1.08,0,0,0,333.25,0Z"/><path class="cls-1" d="M10.87.32.32,10.88a1.08,1.08,0,0,0,.76,1.84H13.86a1.09,1.09,0,0,1,1.08,1.08v8.89a1.08,1.08,0,0,0,1.84.76L27.25,13a1.07,1.07,0,0,1,.76-.32H67.72a1.07,1.07,0,0,0,.76-.31L79.12,1.85A1.08,1.08,0,0,0,78.36,0H11.64A1.07,1.07,0,0,0,10.87.32Z"/><path class="cls-1" d="M27.29,23.41,15.21,35.51a1.07,1.07,0,0,0-.32.76V59.94A1.09,1.09,0,0,0,16,61h19A1.08,1.08,0,0,0,36,59.94V38a2.16,2.16,0,0,1,2.16-2.16h12.2a1.1,1.1,0,0,0,.76-.31L61.78,25A1.08,1.08,0,0,0,61,23.1H28.06A1.09,1.09,0,0,0,27.29,23.41Z"/><path class="cls-1" d="M88.24.32,76.16,12.41a1.05,1.05,0,0,0-.32.76V59.94A1.08,1.08,0,0,0,76.92,61H123a1.12,1.12,0,0,0,.77-.32L136,48.62a1.11,1.11,0,0,0,.31-.77V1.08A1.08,1.08,0,0,0,135.19,0H89A1.05,1.05,0,0,0,88.24.32ZM97,47.22V14.89a2.17,2.17,0,0,1,2.16-2.17h14.94a1.09,1.09,0,0,1,1.08,1.08V46.14A2.16,2.16,0,0,1,113,48.3H98.05A1.08,1.08,0,0,1,97,47.22Z"/><path class="cls-1" d="M414.15,0a2.2,2.2,0,0,0-1.53.63L401.17,12.09a2.2,2.2,0,0,0-.63,1.53V58.86A2.17,2.17,0,0,0,402.7,61h44.57a2.16,2.16,0,0,0,1.52-.63l11.55-11.47A2.13,2.13,0,0,0,461,47.4V2.16A2.16,2.16,0,0,0,458.82,0Zm7.52,47.22V14.89a2.17,2.17,0,0,1,2.16-2.17h14.94a1.09,1.09,0,0,1,1.08,1.08V46.14a2.16,2.16,0,0,1-2.16,2.16H422.75A1.08,1.08,0,0,1,421.67,47.22Z"/><path class="cls-1" d="M163.44,0h-19a1.08,1.08,0,0,0-1.08,1.08V59.94A1.08,1.08,0,0,0,144.47,61h46.1a1.11,1.11,0,0,0,.76-.32L202,50.15a1.08,1.08,0,0,0-.77-1.85H165.6a1.08,1.08,0,0,1-1.08-1.08V1.08A1.08,1.08,0,0,0,163.44,0Z"/><path class="cls-1" d="M228.55,35.82h11.09a1.1,1.1,0,0,0,.76-.31L251,25a1.08,1.08,0,0,0-.77-1.85h-22.8A1.08,1.08,0,0,1,226.39,22V14.89a2.17,2.17,0,0,1,2.16-2.17h23.89a1.1,1.1,0,0,0,.76-.31L263.84,1.85A1.08,1.08,0,0,0,263.08,0H206.34a1.08,1.08,0,0,0-1.08,1.08V59.94A1.09,1.09,0,0,0,206.34,61h46.1a1.11,1.11,0,0,0,.76-.32l10.64-10.56a1.08,1.08,0,0,0-.76-1.85H227.47a1.08,1.08,0,0,1-1.08-1.08V38A2.16,2.16,0,0,1,228.55,35.82Z"/><path class="cls-1" d="M403.14,0h-59a1.05,1.05,0,0,0-.76.32L332.84,10.88a1.08,1.08,0,0,0,.77,1.84h22.05a1.09,1.09,0,0,1,1.08,1.08V59.94A1.08,1.08,0,0,0,357.82,61h19a1.08,1.08,0,0,0,1.08-1.09V12.72H392.5a1.07,1.07,0,0,0,.76-.31L403.9,1.85A1.08,1.08,0,0,0,403.14,0Z"/></g></g></svg>