<?xml version="1.0" encoding="utf-8"?>
<!-- Generator: Adobe Illustrator 28.2.0, SVG Export Plug-In . SVG Version: 6.00 Build 0)  -->
<svg version="1.1" id="Camada_1" xmlns="http://www.w3.org/2000/svg" xmlns:xlink="http://www.w3.org/1999/xlink" x="0px" y="0px"
	 viewBox="0 0 300 300" style="enable-background:new 0 0 300 300;" xml:space="preserve">
<style type="text/css">
	.st0{fill:#FFFFFF;}
</style>
<g>
	<path class="st0" d="M212.23,131.23h-35.51c-0.18,0-0.36,0.06-0.48,0.18l-6.32,6.32c-0.42,0.42-0.12,1.08,0.48,1.08h13.24
		c0.36,0,0.66,0.3,0.66,0.66v27.74c0,0.36,0.3,0.66,0.66,0.66h11.43c0.36,0,0.66-0.3,0.66-0.66v-28.4h8.79
		c0.18,0,0.36-0.06,0.48-0.18l6.38-6.38C213.07,131.89,212.83,131.23,212.23,131.23z"/>
	<g>
		<path class="st0" d="M18.21,131.41l-6.32,6.32c-0.42,0.42-0.12,1.08,0.48,1.08h7.64c0.36,0,0.66,0.3,0.66,0.66v5.36
			c0,0.6,0.72,0.84,1.08,0.48l6.32-6.26c0.12-0.12,0.3-0.18,0.48-0.18h23.89c0.18,0,0.36-0.06,0.48-0.18l6.38-6.38
			c0.42-0.42,0.12-1.08-0.48-1.08H18.69C18.51,131.23,18.33,131.29,18.21,131.41z"/>
		<path class="st0" d="M28.08,145.31l-7.28,7.28c-0.12,0.12-0.18,0.3-0.18,0.48v14.26c0,0.36,0.3,0.66,0.66,0.66h11.43
			c0.36,0,0.66-0.3,0.66-0.66V154.1c0-0.72,0.6-1.32,1.32-1.32h7.34c0.18,0,0.36-0.06,0.48-0.18l6.38-6.38
			c0.42-0.42,0.12-1.08-0.48-1.08H28.56C28.38,145.13,28.2,145.19,28.08,145.31z"/>
	</g>
	<path class="st0" d="M64.79,131.41l-7.28,7.28c-0.12,0.12-0.18,0.3-0.18,0.48v28.16c0,0.36,0.3,0.66,0.66,0.66h27.74
		c0.18,0,0.36-0.06,0.48-0.18l7.34-7.28c0.12-0.12,0.18-0.3,0.18-0.48v-28.16c0-0.36-0.3-0.66-0.66-0.66h-27.8
		C65.09,131.23,64.91,131.29,64.79,131.41z M70.03,159.64v-19.5c0-0.72,0.6-1.32,1.32-1.32h8.97c0.36,0,0.66,0.3,0.66,0.66v19.44
		c0,0.72-0.6,1.32-1.32,1.32h-8.97C70.33,160.3,70.03,160,70.03,159.64z"/>
	<path class="st0" d="M260.92,131.23c-0.36,0-0.66,0.12-0.9,0.36l-6.86,6.92c-0.24,0.24-0.36,0.6-0.36,0.9v27.2
		c0,0.72,0.6,1.32,1.32,1.32h0.36h26.48c0.36,0,0.66-0.12,0.9-0.36l6.92-6.92c0.24-0.24,0.36-0.6,0.36-0.9v-27.2
		c0-0.72-0.6-1.32-1.32-1.32L260.92,131.23L260.92,131.23z M265.43,159.64v-19.5c0-0.72,0.6-1.32,1.32-1.32h8.97
		c0.36,0,0.66,0.3,0.66,0.66v19.44c0,0.72-0.6,1.32-1.32,1.32h-8.97C265.73,160.3,265.43,160,265.43,159.64z"/>
	<path class="st0" d="M110.05,131.23H98.61c-0.36,0-0.66,0.3-0.66,0.66v35.45c0,0.36,0.3,0.66,0.66,0.66h27.74
		c0.18,0,0.36-0.06,0.48-0.18l6.38-6.38c0.42-0.42,0.12-1.08-0.48-1.08h-21.42c-0.36,0-0.66-0.3-0.66-0.66v-27.74
		C110.71,131.47,110.41,131.23,110.05,131.23z"/>
	<path class="st0" d="M149.22,152.77h6.68c0.18,0,0.36-0.06,0.48-0.18l6.38-6.38c0.42-0.42,0.12-1.08-0.48-1.08h-13.72
		c-0.36,0-0.66-0.3-0.66-0.66v-4.33c0-0.72,0.6-1.32,1.32-1.32h14.38c0.18,0,0.36-0.06,0.48-0.18l6.38-6.32
		c0.42-0.42,0.12-1.08-0.48-1.08h-34.12c-0.36,0-0.66,0.3-0.66,0.66v35.45c0,0.36,0.3,0.66,0.66,0.66h27.74
		c0.18,0,0.36-0.06,0.48-0.18l6.38-6.38c0.42-0.42,0.12-1.08-0.48-1.08h-21.42c-0.36,0-0.66-0.3-0.66-0.66v-5.54
		C147.9,153.38,148.5,152.77,149.22,152.77z"/>
	<path class="st0" d="M254.3,131.23h-35.51c-0.18,0-0.36,0.06-0.48,0.18l-6.32,6.32c-0.42,0.42-0.12,1.08,0.48,1.08h13.24
		c0.36,0,0.66,0.3,0.66,0.66v27.74c0,0.36,0.3,0.66,0.66,0.66h11.43c0.36,0,0.66-0.3,0.66-0.66v-28.4h8.79
		c0.18,0,0.36-0.06,0.48-0.18l6.32-6.32C255.14,131.89,254.84,131.23,254.3,131.23z"/>
</g>
</svg>
