<?xml version="1.0" encoding="utf-8"?>
<!-- Generator: Adobe Illustrator 28.2.0, SVG Export Plug-In . SVG Version: 6.00 Build 0)  -->
<svg version="1.1" id="Camada_1" xmlns="http://www.w3.org/2000/svg" xmlns:xlink="http://www.w3.org/1999/xlink" x="0px" y="0px"
	 viewBox="0 0 300 300" style="enable-background:new 0 0 300 300;" xml:space="preserve">
<g>
	<path d="M212.84,131.38h-36.19c-0.18,0-0.37,0.06-0.49,0.18l-6.44,6.44c-0.43,0.43-0.12,1.1,0.49,1.1h13.49
		c0.37,0,0.67,0.31,0.67,0.67v28.27c0,0.37,0.31,0.67,0.67,0.67h11.65c0.37,0,0.67-0.31,0.67-0.67v-28.95h8.95
		c0.18,0,0.37-0.06,0.49-0.18l6.5-6.5C213.76,132.06,213.46,131.38,212.84,131.38z"/>
	<path d="M16.34,131.57l-6.44,6.44c-0.43,0.43-0.12,1.1,0.49,1.1h7.85c0.37,0,0.67,0.31,0.67,0.67v5.46c0,0.61,0.74,0.86,1.1,0.49
		l6.44-6.38c0.12-0.12,0.31-0.18,0.49-0.18H51.3c0.18,0,0.37-0.06,0.49-0.18l6.44-6.5c0.43-0.43,0.12-1.1-0.49-1.1H16.83
		C16.64,131.38,16.46,131.45,16.34,131.57z"/>
	<path d="M26.46,145.74l-7.42,7.42c-0.12,0.12-0.18,0.31-0.18,0.49v14.54c0,0.37,0.31,0.67,0.67,0.67h11.65
		c0.37,0,0.67-0.31,0.67-0.67v-13.49c0-0.74,0.61-1.35,1.35-1.35h7.48c0.18,0,0.37-0.06,0.49-0.18l6.5-6.5
		c0.43-0.43,0.12-1.1-0.49-1.1H26.95C26.7,145.55,26.58,145.61,26.46,145.74z"/>
	<path d="M63.2,131.57l-7.42,7.42c-0.12,0.12-0.18,0.31-0.18,0.49v28.7c0,0.37,0.31,0.67,0.67,0.67h28.27
		c0.18,0,0.37-0.06,0.49-0.18l7.48-7.42c0.12-0.12,0.18-0.31,0.18-0.49v-28.7c0-0.37-0.31-0.67-0.67-0.67H63.69
		C63.5,131.38,63.32,131.45,63.2,131.57z M68.53,160.33v-19.87c0-0.74,0.61-1.35,1.35-1.35h9.14c0.37,0,0.67,0.31,0.67,0.67v19.81
		c0,0.74-0.61,1.35-1.35,1.35h-9.14C68.84,161.01,68.53,160.7,68.53,160.33z"/>
	<path d="M261.24,131.38c-0.37,0-0.67,0.12-0.92,0.37l-6.99,7.05c-0.25,0.25-0.37,0.61-0.37,0.92v27.72c0,0.74,0.61,1.35,1.35,1.35
		h0.37h26.99c0.37,0,0.67-0.12,0.92-0.37l7.05-7.05c0.25-0.25,0.37-0.61,0.37-0.92v-27.72c0-0.74-0.61-1.35-1.35-1.35L261.24,131.38
		L261.24,131.38z M265.84,160.33v-19.87c0-0.74,0.61-1.35,1.35-1.35h9.14c0.37,0,0.67,0.31,0.67,0.67v19.81
		c0,0.74-0.61,1.35-1.35,1.35h-9.14C266.14,161.01,265.84,160.7,265.84,160.33z"/>
	<path d="M109.32,131.38H97.66c-0.37,0-0.67,0.31-0.67,0.67v36.12c0,0.37,0.31,0.67,0.67,0.67h28.27c0.18,0,0.37-0.06,0.49-0.18
		l6.5-6.5c0.43-0.43,0.12-1.1-0.49-1.1h-21.77c-0.37,0-0.67-0.31-0.67-0.67v-28.27C109.99,131.63,109.68,131.38,109.32,131.38z"/>
	<path d="M149.24,153.34h6.81c0.18,0,0.37-0.06,0.49-0.18l6.5-6.5c0.43-0.43,0.12-1.1-0.49-1.1h-13.98c-0.37,0-0.67-0.31-0.67-0.67
		v-4.42c0-0.74,0.61-1.35,1.35-1.35h14.66c0.18,0,0.37-0.06,0.49-0.18l6.5-6.5c0.43-0.43,0.12-1.1-0.49-1.1h-34.78
		c-0.37,0-0.67,0.31-0.67,0.67v36.12c0,0.37,0.31,0.67,0.67,0.67h28.27c0.18,0,0.37-0.06,0.49-0.18l6.5-6.5
		c0.43-0.43,0.12-1.1-0.49-1.1h-21.83c-0.37,0-0.67-0.31-0.67-0.67v-5.64C147.96,153.95,148.51,153.34,149.24,153.34z"/>
	<path d="M255.1,131.38h-36.19c-0.18,0-0.37,0.06-0.49,0.18l-6.44,6.44c-0.43,0.43-0.12,1.1,0.49,1.1h13.49
		c0.37,0,0.67,0.31,0.67,0.67v28.27c0,0.37,0.31,0.67,0.67,0.67h11.65c0.37,0,0.67-0.31,0.67-0.67v-28.95h8.95
		c0.18,0,0.37-0.06,0.49-0.18l6.5-6.5C255.96,132.06,255.72,131.38,255.1,131.38z"/>
</g>
</svg>
